<?xml version="1.0" encoding="UTF-8"?><svg xmlns="http://www.w3.org/2000/svg" xmlns:xlink="http://www.w3.org/1999/xlink" fill-opacity="1" color-rendering="auto" color-interpolation="auto" text-rendering="auto" stroke="black" stroke-linecap="square" width="355" stroke-miterlimit="10" shape-rendering="auto" stroke-opacity="1" fill="black" stroke-dasharray="none" font-weight="normal" stroke-width="1" height="61" font-family="'Dialog'" font-style="normal" stroke-linejoin="miter" font-size="12px" stroke-dashoffset="0" image-rendering="auto">
  <!--Generated by ySVG 2.5-->
  <defs id="genericDefs"/>
  <g>
    <defs id="defs1">
      <clipPath clipPathUnits="userSpaceOnUse" id="clipPath1">
        <path d="M0 0 L355 0 L355 61 L0 61 L0 0 Z"/>
      </clipPath>
      <clipPath clipPathUnits="userSpaceOnUse" id="clipPath2">
        <path d="M681 666 L1036 666 L1036 727 L681 727 L681 666 Z"/>
      </clipPath>
    </defs>
    <g fill="silver" text-rendering="geometricPrecision" shape-rendering="geometricPrecision" transform="matrix(1,0,0,1,-681,-666)" stroke="silver">
      <circle r="15" clip-path="url(#clipPath2)" cx="711.3333" cy="696.3958" stroke="none"/>
    </g>
    <g text-rendering="geometricPrecision" stroke-miterlimit="1.45" shape-rendering="geometricPrecision" transform="matrix(1,0,0,1,-681,-666)" stroke-linecap="butt">
      <circle fill="none" r="15" clip-path="url(#clipPath2)" cx="711.3333" cy="696.3958"/>
    </g>
    <g fill="silver" text-rendering="geometricPrecision" shape-rendering="geometricPrecision" transform="matrix(1,0,0,1,-681,-666)" stroke="silver">
      <circle r="15" clip-path="url(#clipPath2)" cx="809.25" cy="696.3958" stroke="none"/>
    </g>
    <g text-rendering="geometricPrecision" stroke-miterlimit="1.45" shape-rendering="geometricPrecision" transform="matrix(1,0,0,1,-681,-666)" stroke-linecap="butt">
      <circle fill="none" r="15" clip-path="url(#clipPath2)" cx="809.25" cy="696.3958"/>
    </g>
    <g fill="silver" text-rendering="geometricPrecision" shape-rendering="geometricPrecision" transform="matrix(1,0,0,1,-681,-666)" stroke="silver">
      <circle r="15" clip-path="url(#clipPath2)" cx="907.1667" cy="696.3958" stroke="none"/>
    </g>
    <g text-rendering="geometricPrecision" stroke-miterlimit="1.45" shape-rendering="geometricPrecision" transform="matrix(1,0,0,1,-681,-666)" stroke-linecap="butt">
      <circle fill="none" r="15" clip-path="url(#clipPath2)" cx="907.1667" cy="696.3958"/>
    </g>
    <g fill="silver" text-rendering="geometricPrecision" shape-rendering="geometricPrecision" transform="matrix(1,0,0,1,-681,-666)" stroke="silver">
      <circle r="15" clip-path="url(#clipPath2)" cx="1005.0833" cy="696.3958" stroke="none"/>
    </g>
    <g text-rendering="geometricPrecision" stroke-miterlimit="1.45" shape-rendering="geometricPrecision" transform="matrix(1,0,0,1,-681,-666)" stroke-linecap="butt">
      <circle fill="none" r="15" clip-path="url(#clipPath2)" cx="1005.0833" cy="696.3958"/>
      <path fill="none" d="M726.3333 696.3958 L783.25 696.3958" stroke-width="4" clip-path="url(#clipPath2)" stroke="silver"/>
      <path fill="silver" d="M794.25 696.3958 L777.75 689.5208 L781.875 696.3958 L777.75 703.2708 Z" stroke-width="4" clip-path="url(#clipPath2)" stroke="none"/>
      <path fill="none" d="M824.25 696.3958 L881.1667 696.3958" stroke-width="4" clip-path="url(#clipPath2)" stroke="silver"/>
      <path fill="silver" d="M892.1667 696.3958 L875.6667 689.5208 L879.7917 696.3958 L875.6667 703.2708 Z" stroke-width="4" clip-path="url(#clipPath2)" stroke="none"/>
      <path fill="none" d="M922.1667 696.3958 L979.0833 696.3958" stroke-width="4" clip-path="url(#clipPath2)" stroke="silver"/>
      <path fill="silver" d="M990.0833 696.3958 L973.5833 689.5208 L977.7083 696.3958 L973.5833 703.2708 Z" stroke-width="4" clip-path="url(#clipPath2)" stroke="none"/>
    </g>
  </g>
</svg>
